<mxfile host="app.diagrams.net" modified="2023-09-12T15:43:38.430Z" agent="Mozilla/5.0 (X11; Linux x86_64) AppleWebKit/537.36 (KHTML, like Gecko) Chrome/116.0.0.0 Safari/537.36" version="21.7.4" etag="yf3BPLSyft9y3MWtWpMy" type="github">
  <diagram name="Page-1" id="uX7iK6uK5vU3SJ1vi2Ko">
    <mxGraphModel>
      <root>
        <mxCell id="0" />
        <mxCell id="1" parent="0" />
      </root>
    </mxGraphModel>
  </diagram>
</mxfile>
